<?xml version="1.0" standalone="yes"?>
<svg xmlns="http://www.w3.org/2000/svg" width="512" height="512">
<path style="fill:#010101; stroke:none;" d="M0 0L0 234L1 234C1.01366 213.381 7.19927 192.398 13.6667 173C46.7547 73.755 150.224 -1.59283 256 3.03937C294.259 4.71481 331.6 13.1703 366 30.3704C447.328 71.0343 504.853 159.404 505 251C505.192 370.749 422.135 479.574 303 503.551C185.48 527.203 63.3305 462.921 18.2006 351C9.09152 328.41 1.01628 302.575 1 278L0 278L0 512L512 512L512 442L502 446C500.654 458.08 486.686 458.516 486 446C473.009 444.821 472.569 430.436 486 430C486.433 416.662 501.281 416.867 502 430L511 434L512 434L512 0L0 0z"/>
<path style="fill:#dd714c; stroke:none;" d="M81 70C105.778 77.3267 134.104 70.1928 159 76.9275C173.953 80.9726 180.331 96.9707 197 96.9707C213.68 96.9707 221.089 80.1151 237 78.1844C264.662 74.828 294.118 77.6685 322 76.9854C355.972 76.153 390.027 72 424 72C420.905 65.4999 413.556 60.8705 408 56.4498C392.626 44.2183 375.569 34.8199 358 26.2446C292.684 -5.63641 213.686 -3.00159 148 25.5756C124.257 35.9051 98.7355 50.8861 81 70z"/>
<path style="fill:#e49960; stroke:none;" d="M312 10L313 11L312 10z"/>
<path style="fill:#dd714c; stroke:none;" d="M479 39C492.132 37.8083 492.091 23.1879 479 22C478.629 15.2278 472.27 8.11484 465.314 13.7423C462.904 15.6924 462.934 19.162 460.567 21.1466C456.891 24.2289 452.449 24.0445 452.153 30C451.832 36.4333 456.683 36.5476 460.57 39.8426C462.93 41.8423 463.061 45.2822 465.43 47.2577C472.363 53.04 478.408 45.5276 479 39z"/>
<path style="fill:#e49960; stroke:none;" d="M177 14L178 15L177 14z"/>
<path style="fill:#ece9eb; stroke:none;" d="M22 27C7.91228 27.1275 8.31906 42.3642 22 43C22.3188 56.1819 37.2906 55.9573 38 43C51.2022 42.2771 51.6658 27.1614 38 27C37.665 13.1409 22.1275 12.9153 22 27z"/>
<path style="fill:#e49960; stroke:none;" d="M165 18L166 19L165 18M458 22L459 23L458 22M148 25L149 26L148 25M489 29L490 30L489 29M455 37L456 38L455 37M118 41L119 42L118 41M89 62L90 63L89 62z"/>
<path style="fill:#f0cb31; stroke:none;" d="M25 145L134 147L282 145C282.792 107.8 350.3 114.067 340 153L396 153.91L479 146C475.141 125.77 455.38 104.054 442.282 89C437.72 83.7573 431.664 74.8563 425 72.3133C420.799 70.7101 415.33 72.771 411 72.9606C399.361 73.4703 387.632 74.8578 376 74.9962C350.006 75.3054 323.99 77.687 298 77.9962C278.151 78.2323 256.643 75.4684 237 78.3001C220.853 80.6279 212.857 97.3433 196 96.9846C182.092 96.6886 176.596 84.1126 165 79.044C147.744 71.5009 123.566 74.5982 105 72.8302C98.2151 72.1841 86.4106 68.8668 80 71.3133C73.5276 73.7833 68.3952 82.1209 63.8302 87.0895C48.4469 103.833 33.7883 123.897 25 145z"/>
<path style="fill:#e49960; stroke:none;" d="M81 70L82 71L81 70M89 71L89 72L92 72L89 71M102 72L102 73L105 73L102 72M412 72L412 73L416 73L412 72M115 73L115 74L118 74L115 73M393 73L393 74L400 74L393 73M129 74L129 75L132 75L129 74M375 74L375 75L383 75L375 74M142 75L142 76L146 76L142 75M354 75L354 76L363 76L354 75M156.667 76.3333L157.333 76.6667L156.667 76.3333M327 76L327 77L339 77L327 76M161 77L162 78L161 77M282 77L282 78L305 78L282 77M163 78L164 79L163 78M234.667 78.3333L235.333 78.6667L234.667 78.3333M231 79L232 80L231 79M228 80L229 81L228 80M169 81L170 82L169 81M226 81L227 82L226 81M224 82L225 83L224 82M67 83L68 84L67 83M173 84L174 85L173 84M221 84L222 85L221 84M174 85L175 86L174 85M220 85L221 86L220 85M219 86L220 87L219 86M217 88L218 89L217 88M441 88L442 89L441 88M181 92L182 93L181 92M212 92L213 93L212 92M209 94L210 95L209 94M187 95L188 96L187 95M206 95L207 96L206 95M190.667 96.3333L191.333 96.6667L190.667 96.3333M202.667 96.3333L203.333 96.6667L202.667 96.3333M304.667 120.333L305.333 120.667L304.667 120.333z"/>
<path style="fill:#dd714c; stroke:none;" d="M282 146L191 146.961L93 147L43 145.999L25.3904 146.028L17.6042 161L4 207C63.5641 207.007 122.667 219.847 182 223.91C227.128 227.001 273.004 219.01 318 217.039C354.028 215.462 390.005 219.537 426 217.961C451.283 216.853 475.911 213.187 501 210C496.815 193.824 493.543 177.541 487.139 162C485.508 158.041 483.479 149.341 479.582 147.117C471.952 142.763 451.699 149.48 443 149.965C408.09 151.909 375.038 155.765 340 153C352.145 114.686 282.326 107.107 282 146z"/>
<path style="fill:#e49960; stroke:none;" d="M317 120L317 121L320 121L317 120M300 121L301 122L300 121M322 121L323 122L322 121M297 122L298 123L297 122M325 122L326 123L325 122M327 123L328 124L327 123M293 124L294 125L293 124M329 124L330 125L329 124M331 125L332 126L331 125M290 126L291 127L290 126M332 126L333 127L332 126M289 127L290 128L289 127M288 128L289 129L288 128M287 129L288 130L287 129M286 130L287 131L286 130M338 132L339 133L338 132M284 133L285 134L284 133M30 134L31 135L30 134M283 135L284 136L283 135M282 138L283 139L282 138M341.333 138.667L341.667 139.333L341.333 138.667M476 139L477 140L476 139M35 145L35 146L47 146L35 145M222 145L222 146L239 146L222 145M277 145L277 146L282 146L277 145M479 145L480 146L479 145M80 146L80 147L103 147L80 146M109 146L109 147L126 147L109 146M147 146L147 147L196 147C183.348 141.691 160.788 146 147 146M473 146L473 147L477 147L473 146M462 147L462 148L467 148L462 147M341 148L342 149L341 148M453 148L453 149L457 149L453 148M443 149L443 150L448 150L443 149M432 150L432 151L437 151L432 150M421 151L421 152L426 152L421 151M410 152L410 153L416 153L410 152M344 153L344 154L350 154L344 153M399 153L399 154L405 154L399 153M359 154L359 155L390 155L359 154M492 177L493 178L492 177M495 187L496 188L495 187z"/>
<path style="fill:#ece9eb; stroke:none;" d="M4 207L0 263L75 268C82.7829 243.629 123.459 249.582 124 275L175 279.985L306 274.039L438 273.961L505 266L501 210C443.588 224.144 380.637 218 322 218C272.556 218 223.633 226.134 174 223.961C143.865 222.641 113.909 217.006 84 213.285C57.3424 209.968 30.6985 209.107 4 207z"/>
<path style="fill:#f0cb31; stroke:none;" d="M8 207L9 208L8 207z"/>
<path style="fill:#e49960; stroke:none;" d="M9 207L9 208L15 208L9 207z"/>
<path style="fill:#f0cb31; stroke:none;" d="M30 208L31 209L30 208z"/>
<path style="fill:#e49960; stroke:none;" d="M31 208L31 209L36 209L31 208M46 209L46 210L50 210L46 209M58 210L58 211L61 211L58 210M497 210L497 211L500 211L497 210M68 211L68 212L71 212L68 211M491 211L491 212L494 212L491 211z"/>
<path style="fill:#f0cb31; stroke:none;" d="M76 212L77 213L76 212z"/>
<path style="fill:#e49960; stroke:none;" d="M77.6667 212.333L78.3333 212.667L77.6667 212.333M485 212L485 213L488 213L485 212z"/>
<path style="fill:#f0cb31; stroke:none;" d="M488 212L489 213L488 212z"/>
<path style="fill:#e49960; stroke:none;" d="M85.6667 213.333L86.3333 213.667L85.6667 213.333M478 213L478 214L481 214L478 213z"/>
<path style="fill:#f0cb31; stroke:none;" d="M481 213L482 214L481 213M92 214L93 215L92 214z"/>
<path style="fill:#e49960; stroke:none;" d="M93.6667 214.333L94.3333 214.667L93.6667 214.333M470 214L470 215L474 215L470 214z"/>
<path style="fill:#f0cb31; stroke:none;" d="M474 214L475 215L474 214z"/>
<path style="fill:#e49960; stroke:none;" d="M99 215L99 216L103 216L99 215M461 215L461 216L466 216L461 215z"/>
<path style="fill:#f0cb31; stroke:none;" d="M466 215L467 216L466 215M106 216L107 217L106 216z"/>
<path style="fill:#e49960; stroke:none;" d="M107 216L107 217L110 217L107 216M450 216L450 217L456 217L450 216z"/>
<path style="fill:#f0cb31; stroke:none;" d="M456 216L457 217L456 216z"/>
<path style="fill:#e49960; stroke:none;" d="M114 217L114 218L118 218L114 217M313 217L313 218L334 218L313 217z"/>
<path style="fill:#f0cb31; stroke:none;" d="M334 217L334 218L345 218L334 217z"/>
<path style="fill:#e49960; stroke:none;" d="M345 217L345 218L380 218L345 217M430 217L430 218L443 218L430 217z"/>
<path style="fill:#f0cb31; stroke:none;" d="M443 217L444 218L443 217M121 218L122 219L121 218z"/>
<path style="fill:#e49960; stroke:none;" d="M122 218L122 219L126 219L122 218M294 218L294 219L302 219L294 218z"/>
<path style="fill:#f0cb31; stroke:none;" d="M302 218L303 219L302 218M129 219L130 220L129 219z"/>
<path style="fill:#e49960; stroke:none;" d="M130 219L130 220L134 220L130 219M279 219L279 220L286 220L279 219z"/>
<path style="fill:#f0cb31; stroke:none;" d="M286 219L287 220L286 219z"/>
<path style="fill:#e49960; stroke:none;" d="M138 220L138 221L143 221L138 220M266 220L266 221L272 221L266 220z"/>
<path style="fill:#f0cb31; stroke:none;" d="M272 220L273 221L272 220z"/>
<path style="fill:#e49960; stroke:none;" d="M147 221L147 222L152 222L147 221M252 221L252 222L259 222L252 221z"/>
<path style="fill:#f0cb31; stroke:none;" d="M259 221L260 222L259 221M157 222L158 223L157 222z"/>
<path style="fill:#e49960; stroke:none;" d="M158 222L158 223L164 223L158 222M238 222L238 223L245 223L238 222z"/>
<path style="fill:#f0cb31; stroke:none;" d="M245 222L246 223L245 222M169 223L170 224L169 223z"/>
<path style="fill:#e49960; stroke:none;" d="M170 223L170 224L179 224L170 223M218 223L218 224L228 224L218 223z"/>
<path style="fill:#f0cb31; stroke:none;" d="M228.667 223.333L229.333 223.667L228.667 223.333M95 252.429C81.0809 254.378 67.1172 268.511 79.2245 281.907C85.9477 289.345 96.4591 291.109 106 289.699C118.373 287.871 129.443 275.147 121.297 263.004C115.913 254.979 104.325 251.123 95 252.429z"/>
<path style="fill:#e49960; stroke:none;" d="M0 263L0 264L11 264L0 263z"/>
<path style="fill:#dd714c; stroke:none;" d="M0 264C0 286.463 3.69705 309.603 10.6698 331C12.6472 337.068 14.3427 348.155 19.4182 352.397C25.1642 357.199 40.7519 355.468 48 356.17C73.9087 358.677 100.007 360.884 126 362L105.692 317L98.0625 292.564L81.0432 283.787L71.686 268.603L54 266.576L0 264z"/>
<path style="fill:#e49960; stroke:none;" d="M21 264L21 265L33 265L21 264M40 265L40 266L48 266L40 265M53 266L53 267L59 267L53 266z"/>
<path style="fill:#f0cb31; stroke:none;" d="M59 266L60 267L59 266z"/>
<path style="fill:#e49960; stroke:none;" d="M94 290L94 291C100.961 293.107 101.359 303.784 103.141 310C106.987 323.412 112.509 336.543 118.753 349C120.919 353.321 123.315 360.237 128.104 362.258C136.955 365.992 153.36 363.996 163 364C189.209 364.01 215.219 368.747 240 357.564C260.323 348.393 273.599 332.069 297 329.156C314.568 326.969 331.348 329.715 347 338.312C357.594 344.13 366.422 352.167 378 356.302C399.737 364.064 424.575 360.933 447 358.285C455.571 357.274 464.384 356.613 473 356.025C476.479 355.787 482.377 356.075 485.006 353.397C489.805 348.51 491.744 337.417 493.717 331C500.322 309.514 502.207 288.103 505 266C482.681 266.961 460.47 272.977 438 273.961C394.425 275.869 350.607 272.946 307 274.015C279.311 274.693 251.672 278.749 224 279.961C202.913 280.884 180.983 280.835 160 278.83C149.646 277.841 137.375 274.268 127.055 275.238C122.246 275.689 119.019 283.249 114.999 285.891C108.515 290.153 101.445 290 94 290M64 267L64 268L69 268L64 267z"/>
<path style="fill:#f0cb31; stroke:none;" d="M494 267L495 268L494 267z"/>
<path style="fill:#e49960; stroke:none;" d="M73 268L74 274L75 274L73 268z"/>
<path style="fill:#f0cb31; stroke:none;" d="M488 268L489 269L488 268M481 269L482 270L481 269M474 270L475 271L474 270M466 271L467 272L466 271M456 272L457 273L456 272M333 273L333 274L348 274L333 273M442 273L443 274L442 273M301 274L302 275L301 274z"/>
<path style="fill:#e49960; stroke:none;" d="M75.3333 275.667L75.6667 276.333L75.3333 275.667z"/>
<path style="fill:#f0cb31; stroke:none;" d="M285 275L286 276L285 275M272 276L273 277L272 276M147 277L148 278L147 277z"/>
<path style="fill:#e49960; stroke:none;" d="M76 278L77 279L76 278z"/>
<path style="fill:#f0cb31; stroke:none;" d="M157 278L158 279L157 278M244 278L245 279L244 278M169 279L170 280L169 279M228 279L229 280L228 279z"/>
<path style="fill:#e49960; stroke:none;" d="M77 280L78 281L77 280M78 281L79 282L78 281M79 282L80 283L79 282M80 283L81 284L80 283M81 284L82 285L81 284M82.6667 285.333L83.3333 285.667L82.6667 285.333M84 286L85 287L84 286M86 287L87 288L86 287M88 288L89 289L88 288M90 289L90 290L93 290L90 289z"/>
<path style="fill:#f0cb31; stroke:none;" d="M20 354C23.8041 376.093 42.5392 395.596 54 414C74.4291 410.748 98.3478 417.056 119 417.961C139.343 418.851 159.67 420.07 180 420.961C197.645 421.733 214.747 420.284 232 425.155C246.166 429.155 256.316 439.232 269 445.961C282.723 453.24 297.666 455.361 313 454.985C343.705 454.233 361.529 429.144 389 420.344C407.865 414.301 430.914 420.651 448.91 413.397C454.17 411.277 457.983 403.503 460.999 399C470.343 385.053 478.621 370.549 485 355C453.689 355.259 420.023 366.256 389 359.113C359.096 352.227 339.726 327.226 307 328.015C270.62 328.892 249.725 360.198 215 364.711C199.573 366.715 183.419 364.392 168 364.015C118.468 362.801 69.4228 356.122 20 354M491 337L492 338L491 337z"/>
<path style="fill:#e49960; stroke:none;" d="M19.3333 353.667L19.6667 354.333L19.3333 353.667M25 354L25 355L29 355L25 354M35 355L35 356L40 356L35 355M46 356L46 357L51 357L46 356M58 357L58 358L63 358L58 357M69 358L69 359L75 359L69 358M83 359L83 360L89 360L83 359M97 360L97 361L104 361L97 360M112 361L112 362L121 362L112 361M300 361L300 362L306 362L300 361z"/>
<path style="fill:#dd714c; stroke:none;" d="M306 361.428C297.405 362.458 288.728 363.633 281 367.905C264.204 377.19 258.236 398.309 274.015 411.671C284.874 420.867 301.21 423.507 315 421.711C321.468 420.868 328.251 418.763 334 415.676C337.726 413.675 341.009 411.061 343.907 407.985C367.45 382.998 330.004 358.553 306 361.428z"/>
<path style="fill:#e49960; stroke:none;" d="M312 361L312 362L318 362L312 361M295.667 362.333L296.333 362.667L295.667 362.333M320 362L320 363L323 363L320 362M291.667 363.333L292.333 363.667L291.667 363.333M325 363L326 364L325 363M288.667 364.333L289.333 364.667L288.667 364.333M328 364L329 365L328 364M285.667 365.333L286.333 365.667L285.667 365.333M330.667 365.333L331.333 365.667L330.667 365.333M283 366L284 367L283 366M333 366L334 367L333 366M281 367L282 368L281 367M335 367L336 368L335 367M336 368L337 369L336 368M278 369L279 370L278 369M338 369L339 370L338 369M339 370L340 371L339 370M275 371L276 372L275 371M274 372L275 373L274 372M342 372L343 373L342 372M273 373L274 374L273 373M343 373L344 374L343 373M272 374L273 375L272 374M344 374L345 375L344 374M29 375L30 376L29 375M271 375L272 376L271 375M345 375L346 376L345 375M270 376L271 377L270 376M30 377L31 378L30 377M269 377L270 378L269 377M346 377L347 378L346 377M347 378L348 379L347 378M267 380L268 381L267 380M348 380L349 381L348 380M33 382L34 383L33 382M266 382L267 383L266 382M349 382L350 383L349 382M34 384L35 385L34 384M265.333 384.667L265.667 385.333L265.333 384.667M350 384L350 387L351 387L350 384M264.333 388.667L264.667 389.333L264.333 388.667M351 390L352 391L351 390M39 392L40 393L39 392M264 394L264 397L265 397L264 394M350 395L350 398L351 398L350 395M265 399L266 400L265 399M266 402L267 403L266 402M347 403L348 404L347 403M267 404L268 405L267 404M268 405L269 406L268 405M345 406L346 407L345 406M344 407L345 408L344 407M343 408L344 409L343 408M271 409L272 410L271 409M342 409L343 410L342 409M272 410L273 411L272 410M341 410L342 411L341 410M340 411L341 412L340 411M55 413L55 414L59 414L55 413M276 413L277 414L276 413M337 413L338 414L337 413z"/>
<path style="fill:#dd714c; stroke:none;" d="M55 414C68.0999 434.943 90.6807 452.459 111 466C164.594 501.715 230.567 515.839 294 505.247C312.67 502.129 333.164 497.966 350 489C341.865 485.586 328.923 487.683 320 486.83C299.865 484.905 280.088 480.283 261 473.656C240.639 466.587 220.681 456.633 203 444.279C193.742 437.809 183.468 425.384 173 421.599C159.561 416.739 140.191 419.582 126 418.961C102.394 417.927 78.6247 414.016 55 414z"/>
<path style="fill:#e49960; stroke:none;" d="M64 414L64 415L72 415L64 414M277 414L278 415L277 414M165 420L165 421C175.845 421.038 181.817 429.374 190 435.525C204.485 446.412 219.683 455.846 236 463.742C263.818 477.202 294.245 484.934 325 487.09C333.572 487.69 344.585 490.041 353 487.806C375.177 481.913 397.672 464.069 415 449.75C426.798 440.001 441.871 427.76 449 414C425.598 414.065 397.453 414.806 376 424.89C353.752 435.347 339.494 453.799 313 454.961C298.139 455.612 283.231 452.979 270 445.961C258.575 439.9 249.254 431.15 237 426.461C215.395 418.194 187.792 420 165 420M76 415L76 416L85 416L76 415M279 415L280 416L279 415M334 415L335 416L334 415M89 416L89 417L101 417L89 416M281 416L282 417L281 416M332 416L333 417L332 416M104 417L104 418L115 418L104 417M283 417L284 418L283 417M330 417L331 418L330 417M121 418L121 419L134 419L121 418M285 418L286 419L285 418M327.667 418.333L328.333 418.667L327.667 418.333M140 419L140 420L156 420L140 419M288 419L289 420L288 419M324.667 419.333L325.333 419.667L324.667 419.333z"/>
<path style="fill:#ece9eb; stroke:none;" d="M486 430C472.121 430.164 472.379 445.367 486 446C486.312 458.913 501.308 458.647 502 446C514.647 445.308 514.913 430.312 502 430C501.669 416.315 486.164 416.147 486 430z"/>
<path style="fill:#e49960; stroke:none;" d="M291.667 420.333L292.333 420.667L291.667 420.333M321.667 420.333L322.333 420.667L321.667 420.333M295 421L295 422L298 422L295 421M316.667 421.333L317.333 421.667L316.667 421.333M303 422L303 423L310 423L303 422M66 427L67 428L66 427z"/>
<path style="fill:#f0cb31; stroke:none;" d="M412 451L413 452L412 451M407 455L408 456L407 455M399 461L400 462L399 461z"/>
<path style="fill:#dd714c; stroke:none;" d="M22 476C8.32723 476.331 8.32723 491.669 22 492C22.3305 505.673 37.6695 505.673 38 492C51.6728 491.669 51.6728 476.331 38 476C37.6695 462.327 22.3305 462.327 22 476z"/>
<path style="fill:#e49960; stroke:none;" d="M128 476L129 477L128 476z"/>
<path style="fill:#f0cb31; stroke:none;" d="M368 480L369 481L368 480M362 483L363 484L362 483z"/>
<path style="fill:#dd714c; stroke:none;" d="M351 488L352 489L351 488z"/>
<path style="fill:#e49960; stroke:none;" d="M177 497L178 498L177 497M303 503L304 504L303 503M292 505L293 506L292 505z"/>
</svg>
